<svg width="84" height="28" viewBox="0 0 84 28" fill="none" xmlns="http://www.w3.org/2000/svg">
<path d="M16.511 11.4342C16.0368 7.5373 13.059 5.29639 9.11639 5.29639C4.61643 5.29639 1.18115 8.44355 1.18115 13.9634C1.18115 19.4668 4.5582 22.6305 9.11639 22.6305C13.4833 22.6305 16.12 19.7552 16.511 16.6492L12.8677 16.6327C12.5267 18.437 11.096 19.4751 9.17461 19.4751C6.58776 19.4751 4.83269 17.572 4.83269 13.9634C4.83269 10.4538 6.5628 8.45179 9.19956 8.45179C11.1709 8.45179 12.5932 9.58048 12.8677 11.4342H16.511Z" fill="white"/>
<path d="M18.5586 22.3998H22.1021V15.2404C22.1021 13.6833 23.2499 12.6123 24.8137 12.6123C25.3044 12.6123 25.9782 12.6947 26.3109 12.8018V9.68758C25.9948 9.61343 25.554 9.564 25.1963 9.564C23.7656 9.564 22.5928 10.3879 22.127 11.9532H21.9939V9.74525H18.5586V22.3998Z" fill="white"/>
<path d="M30.2509 27.1205C32.8877 27.1205 34.2934 25.7941 35.0087 23.7674L39.9745 9.76173L36.2231 9.74525L33.5531 19.0384H33.42L30.7749 9.74525H27.0485L31.6317 22.7623L31.4237 23.2978C30.9246 24.443 30.0679 24.5254 28.8202 24.1381L28.0217 26.7663C28.5291 26.9722 29.3526 27.1205 30.2509 27.1205Z" fill="white"/>
<path d="M41.3193 27.1453H44.8627V20.3731H44.9708C45.4616 21.4276 46.5346 22.6058 48.5974 22.6058C51.5087 22.6058 53.7794 20.3237 53.7794 16.089C53.7794 11.739 51.4089 9.58048 48.6057 9.58048C46.468 9.58048 45.445 10.841 44.9708 11.8708H44.8128V9.74525H41.3193V27.1453ZM44.7878 16.0725C44.7878 13.8151 45.7527 12.3734 47.4745 12.3734C49.2296 12.3734 50.1612 13.881 50.1612 16.0725C50.1612 18.2805 49.2129 19.8129 47.4745 19.8129C45.7693 19.8129 44.7878 18.3299 44.7878 16.0725Z" fill="white"/>
<path d="M62.4689 9.74525H60.0651V6.71343H56.5217V9.74525H54.7749V12.3816H56.5217V18.9725C56.505 21.4524 58.2102 22.6799 60.7804 22.5728C61.6954 22.5399 62.3442 22.3586 62.7018 22.2433L62.1445 19.6316C61.9699 19.6646 61.5956 19.747 61.2629 19.747C60.5558 19.747 60.0651 19.4833 60.0651 18.5112V12.3816H62.4689V9.74525Z" fill="white"/>
<path d="M69.944 22.647C73.8202 22.647 76.2323 20.0188 76.2323 16.122C76.2323 12.2004 73.8202 9.58048 69.944 9.58048C66.0679 9.58048 63.6557 12.2004 63.6557 16.122C63.6557 20.0188 66.0679 22.647 69.944 22.647ZM69.9607 19.9282C68.1723 19.9282 67.2574 18.3052 67.2574 16.0972C67.2574 13.8893 68.1723 12.258 69.9607 12.258C71.7157 12.258 72.6307 13.8893 72.6307 16.0972C72.6307 18.3052 71.7157 19.9282 69.9607 19.9282Z" fill="white"/>
<path d="M80.1391 22.614C81.2037 22.614 82.127 21.7325 82.1353 20.6367C82.127 19.5575 81.2037 18.6759 80.1391 18.6759C79.0411 18.6759 78.1345 19.5575 78.1428 20.6367C78.1345 21.7325 79.0411 22.614 80.1391 22.614Z" fill="white"/>
</svg>
