<svg width="324" height="213" viewBox="0 0 324 213" fill="none" xmlns="http://www.w3.org/2000/svg">
<rect x="0.5" y="0.5" width="322.578" height="202" rx="14.5" fill="white" stroke="#D8D8D8"/>
<mask id="mask0_22_20" style="mask-type:alpha" maskUnits="userSpaceOnUse" x="0" y="0" width="324" height="203">
<rect x="0.922424" y="0.5" width="322.578" height="202" rx="14.5" fill="white" stroke="white"/>
</mask>
<g mask="url(#mask0_22_20)">
<path opacity="0.6" d="M239.794 186.173C232.953 185.665 227.684 166.146 220.682 163.462C213.681 160.778 218.37 176.38 205.22 173.822C194.947 171.824 192.638 144.57 185.675 149.732C178.713 154.893 169.97 158.507 159.94 156.545C149.911 154.584 154.273 170.13 145.559 155.306C136.845 140.483 133.827 158.197 125.123 158.197C116.418 158.197 120.876 184.979 110.174 178.844C99.472 172.708 93.7099 182.535 85.0067 183.076C77.7994 183.525 75.7333 170.702 66.621 173.43C57.5087 176.159 56.9264 170.791 47.3506 170.791C38.8996 170.791 33.9914 188.752 22.5619 187.515C11.1325 186.278 0.422424 182.56 0.422424 182.56V203H324V160.571C324 160.571 320.626 165.537 314.539 165.32C308.451 165.103 310.557 175.643 300.157 176.366C289.758 177.088 287.613 159.371 275.747 155.306C263.882 151.241 261.841 173.887 253.229 172.237C244.617 170.587 246.635 186.681 239.794 186.173Z" fill="#0032E3"/>
<path opacity="0.4" d="M230.567 160.656C234.072 150.535 238.656 120.87 256.588 125.175C274.519 129.479 275.059 168.101 299.731 169.497C323.229 170.826 323.981 165.764 324 165.279V165.242C324 165.242 324.001 165.255 324 165.279V203H0.422424V159.609C0.422424 159.609 0.707107 173.336 15.4628 175.197C30.2185 177.058 31.9776 187.345 40.4651 187.345C50.1996 187.345 50.5147 177.601 63.3851 181.211C76.2556 184.821 74.6419 175.693 81.7212 175.197C90.8322 174.558 92.452 146.732 111.498 151.698C130.543 156.664 126.618 139.251 136.325 139.251C146.032 139.251 137.532 155.558 155.872 156.817C174.211 158.076 166.392 183.806 182.839 183.806C194.915 183.806 199.847 175.802 211.961 178.267C224.075 180.733 228.508 166.599 230.567 160.656Z" fill="#0032E3"/>
<path opacity="0.2" d="M235.4 124.833C228.559 124.131 234.185 155.494 221.954 154.217C209.722 152.94 211.539 162.482 205.22 162.684C199.162 162.877 193.221 151.364 186.258 158.496C179.296 165.628 173.091 135.639 162.751 145.034C152.41 154.428 144.23 152.923 135.516 132.441C126.802 111.959 126.84 132.806 119.499 130.396C112.158 127.986 110.01 153.512 99.308 145.034C88.6061 136.555 89.9178 167.59 81.2146 168.338C74.0073 168.958 75.7333 158.372 66.621 162.143C57.5087 165.913 58.092 154.217 48.5163 154.217C40.0653 154.217 31.5362 164.862 20.1067 163.153C8.67727 161.444 0.422424 174.757 0.422424 174.757V203H324V144.375C324 144.375 323.634 158.796 317.546 158.496C311.459 158.196 304.718 180.561 299.204 171.476C293.69 162.392 284.249 129.594 272.383 123.977C260.517 118.361 264.763 101.723 256.151 99.4429C247.539 97.1631 242.24 125.535 235.4 124.833Z" fill="#0032E3"/>
</g>
<line x1="-4.18515e-08" y1="10.4375" x2="323.578" y2="10.4375" stroke="#D8D8D8"/>
<path d="M18.0858 23.2913C17.9441 22.1155 17.0542 21.4393 15.8759 21.4393C14.5311 21.4393 13.5045 22.3889 13.5045 24.0544C13.5045 25.7149 14.5137 26.6695 15.8759 26.6695C17.181 26.6695 17.969 25.8019 18.0858 24.8648L16.997 24.8598C16.8951 25.4042 16.4675 25.7174 15.8933 25.7174C15.1202 25.7174 14.5957 25.1432 14.5957 24.0544C14.5957 22.9954 15.1128 22.3914 15.9008 22.3914C16.4899 22.3914 16.915 22.732 16.997 23.2913H18.0858ZM18.6977 26.5999H19.7567V24.4397C19.7567 23.9699 20.0997 23.6467 20.5671 23.6467C20.7137 23.6467 20.9151 23.6716 21.0145 23.7039V22.7643C20.92 22.7419 20.7883 22.727 20.6814 22.727C20.2539 22.727 19.9034 22.9756 19.7642 23.4479H19.7244V22.7817H18.6977V26.5999ZM22.192 28.0242C22.98 28.0242 23.4001 27.624 23.6139 27.0125L25.0979 22.7866L23.9768 22.7817L23.1788 25.5856H23.1391L22.3486 22.7817H21.2349L22.6046 26.7092L22.5425 26.8708C22.3933 27.2163 22.1373 27.2412 21.7644 27.1244L21.5258 27.9173C21.6774 27.9795 21.9235 28.0242 22.192 28.0242ZM25.4998 28.0317H26.5587V25.9883H26.591C26.7377 26.3065 27.0584 26.662 27.6748 26.662C28.5449 26.662 29.2235 25.9734 29.2235 24.6957C29.2235 23.3832 28.515 22.732 27.6773 22.732C27.0385 22.732 26.7327 23.1123 26.591 23.423H26.5438V22.7817H25.4998V28.0317ZM26.5364 24.6908C26.5364 24.0097 26.8247 23.5746 27.3393 23.5746C27.8638 23.5746 28.1422 24.0295 28.1422 24.6908C28.1422 25.357 27.8588 25.8193 27.3393 25.8193C26.8297 25.8193 26.5364 25.3719 26.5364 24.6908ZM31.8204 22.7817H31.102V21.8669H30.043V22.7817H29.521V23.5771H30.043V25.5658C30.038 26.314 30.5476 26.6844 31.3157 26.6521C31.5892 26.6421 31.7831 26.5874 31.89 26.5526L31.7234 25.7646C31.6712 25.7746 31.5594 25.7994 31.4599 25.7994C31.2486 25.7994 31.102 25.7199 31.102 25.4266V23.5771H31.8204V22.7817ZM34.0543 26.6744C35.2127 26.6744 35.9336 25.8815 35.9336 24.7057C35.9336 23.5224 35.2127 22.732 34.0543 22.732C32.8959 22.732 32.175 23.5224 32.175 24.7057C32.175 25.8815 32.8959 26.6744 34.0543 26.6744ZM34.0593 25.8541C33.5248 25.8541 33.2514 25.3644 33.2514 24.6982C33.2514 24.032 33.5248 23.5398 34.0593 23.5398C34.5838 23.5398 34.8572 24.032 34.8572 24.6982C34.8572 25.3644 34.5838 25.8541 34.0593 25.8541Z" fill="black"/>
<rect x="195.583" y="23.1875" width="24.0782" height="0.875" fill="#C4C4C4"/>
<rect x="15.6297" y="112.872" width="24.0782" height="0.875" fill="#C4C4C4"/>
<rect x="15.6297" y="117.25" width="24.0782" height="0.875" fill="#C4C4C4"/>
<rect x="15.6297" y="121.278" width="24.0782" height="0.869379" fill="#C4C4C4"/>
<path d="M234.023 24.0625H258.102V23.1875H234.023V24.0625Z" fill="#C4C4C4"/>
<rect width="24.0782" height="0.875" transform="matrix(1 0 0 -1 272.042 24.0625)" fill="#C4C4C4"/>
<g filter="url(#filter0_d_22_20)">
<ellipse cx="163.479" cy="92.7942" rx="39.5215" ry="39.0869" fill="white"/>
</g>
<path fill-rule="evenodd" clip-rule="evenodd" d="M160.623 100.512L160.735 100.417L169.104 93.2708C169.388 93.0291 169.564 92.6665 169.564 92.2619C169.564 91.8573 169.383 91.4947 169.104 91.253L160.751 84.1116L160.612 83.9908C160.479 83.9014 160.318 83.8489 160.147 83.8489C159.682 83.8489 159.302 84.2377 159.302 84.7212V99.7921C159.302 100.276 159.682 100.664 160.147 100.664C160.324 100.664 160.489 100.607 160.623 100.512Z" fill="#001B36"/>
<mask id="mask1_22_20" style="mask-type:alpha" maskUnits="userSpaceOnUse" x="159" y="83" width="11" height="18">
<path fill-rule="evenodd" clip-rule="evenodd" d="M160.623 100.512L160.735 100.417L169.104 93.2708C169.388 93.0291 169.564 92.6665 169.564 92.2619C169.564 91.8573 169.383 91.4947 169.104 91.253L160.751 84.1116L160.612 83.9908C160.479 83.9014 160.318 83.8489 160.147 83.8489C159.682 83.8489 159.302 84.2377 159.302 84.7212V99.7921C159.302 100.276 159.682 100.664 160.147 100.664C160.324 100.664 160.489 100.607 160.623 100.512Z" fill="white"/>
</mask>
<g mask="url(#mask1_22_20)">
<rect x="155.737" y="83.8489" width="17" height="17" fill="#001B36"/>
</g>
<ellipse cx="310.271" cy="23.8438" rx="4.85789" ry="5.03125" fill="#C4C4C4"/>
<path d="M14.2787 77.3938L16.9243 81.9534V84.6665H18.2382V81.9534L20.8838 77.3938H19.3959L17.6167 80.6111H17.5457L15.7666 77.3938H14.2787ZM22.9237 84.773C24.5217 84.773 25.5373 83.6473 25.5373 81.9605C25.5373 80.2702 24.5217 79.1409 22.9237 79.1409C21.3257 79.1409 20.31 80.2702 20.31 81.9605C20.31 83.6473 21.3257 84.773 22.9237 84.773ZM22.9308 83.7432C22.0465 83.7432 21.6133 82.9549 21.6133 81.957C21.6133 80.9591 22.0465 80.1601 22.9308 80.1601C23.8008 80.1601 24.234 80.9591 24.234 81.957C24.234 82.9549 23.8008 83.7432 22.9308 83.7432ZM29.905 82.3725C29.905 83.2034 29.3119 83.6154 28.7437 83.6154C28.1258 83.6154 27.7139 83.1786 27.7139 82.4861V79.212H26.4284V82.685C26.4284 83.9953 27.1741 84.7375 28.2466 84.7375C29.0633 84.7375 29.6386 84.3078 29.8872 83.697H29.944V84.6665H31.1905V79.212H29.905V82.3725ZM32.3124 84.6665H33.5979V81.4598C33.5979 80.7674 34.1199 80.2773 34.8266 80.2773C35.0432 80.2773 35.3131 80.3164 35.4232 80.3519V79.1693C35.306 79.148 35.1036 79.1338 34.9615 79.1338C34.3365 79.1338 33.8145 79.4889 33.6156 80.121H33.5588V79.212H32.3124V84.6665ZM39.6432 81.4705C39.6432 80.6821 40.1333 80.2276 40.8222 80.2276C41.4969 80.2276 41.8946 80.6573 41.8946 81.3924V84.6665H43.1801V81.1935C43.1801 79.876 42.4344 79.1409 41.3016 79.1409C40.4635 79.1409 39.9308 79.5209 39.6787 80.1388H39.6148V77.3938H38.3577V84.6665H39.6432V81.4705ZM46.6698 84.773C48.2678 84.773 49.2834 83.6473 49.2834 81.9605C49.2834 80.2702 48.2678 79.1409 46.6698 79.1409C45.0717 79.1409 44.0561 80.2702 44.0561 81.9605C44.0561 83.6473 45.0717 84.773 46.6698 84.773ZM46.6769 83.7432C45.7926 83.7432 45.3594 82.9549 45.3594 81.957C45.3594 80.9591 45.7926 80.1601 46.6769 80.1601C47.5469 80.1601 47.9801 80.9591 47.9801 81.957C47.9801 82.9549 47.5469 83.7432 46.6769 83.7432ZM51.46 77.3938H50.1745V84.6665H51.46V77.3938ZM54.6061 84.7624C55.5436 84.7624 55.9661 84.2049 56.1686 83.8071H56.2467V84.6665H57.5109V77.3938H56.2218V80.1139H56.1686C55.9732 79.7198 55.572 79.1409 54.6096 79.1409C53.349 79.1409 52.3582 80.1282 52.3582 81.9463C52.3582 83.7432 53.3205 84.7624 54.6061 84.7624ZM54.9647 83.7077C54.116 83.7077 53.6686 82.962 53.6686 81.9392C53.6686 80.9236 54.1089 80.1956 54.9647 80.1956C55.7921 80.1956 56.2467 80.881 56.2467 81.9392C56.2467 82.9975 55.785 83.7077 54.9647 83.7077ZM58.6807 84.6665H59.9662V79.212H58.6807V84.6665ZM59.327 78.4378C59.7354 78.4378 60.0692 78.1253 60.0692 77.7418C60.0692 77.3547 59.7354 77.0422 59.327 77.0422C58.9151 77.0422 58.5813 77.3547 58.5813 77.7418C58.5813 78.1253 58.9151 78.4378 59.327 78.4378ZM62.3737 81.4705C62.3737 80.6821 62.8495 80.2276 63.5278 80.2276C64.1918 80.2276 64.5896 80.6644 64.5896 81.3924V84.6665H65.8751V81.1935C65.8786 79.8867 65.1329 79.1409 64.0072 79.1409C63.1904 79.1409 62.6293 79.5316 62.3808 80.1388H62.3168V79.212H61.0882V84.6665H62.3737V81.4705ZM69.3541 86.8043C70.8278 86.8043 71.9144 86.1296 71.9144 84.7553V79.212H70.6467V80.1139H70.5757C70.3803 79.7198 69.972 79.1409 69.0096 79.1409C67.7489 79.1409 66.7582 80.1282 66.7582 81.9215C66.7582 83.7006 67.7489 84.5884 69.0061 84.5884C69.94 84.5884 70.3768 84.0877 70.5757 83.6864H70.6396V84.7198C70.6396 85.501 70.1069 85.8313 69.3754 85.8313C68.6012 85.8313 68.2603 85.4655 68.1041 85.1672L66.9464 85.4478C67.1808 86.1899 67.9656 86.8043 69.3541 86.8043ZM69.3647 83.5799C68.516 83.5799 68.0686 82.9193 68.0686 81.9144C68.0686 80.9236 68.5089 80.1956 69.3647 80.1956C70.1921 80.1956 70.6467 80.881 70.6467 81.9144C70.6467 82.9549 70.185 83.5799 69.3647 83.5799ZM77.343 80.6537C77.1654 79.7304 76.4268 79.1409 75.1484 79.1409C73.8345 79.1409 72.9396 79.7872 72.9431 80.7958C72.9396 81.5912 73.4296 82.1168 74.4772 82.3334L75.4076 82.5287C75.9083 82.6388 76.1427 82.8412 76.1427 83.1502C76.1427 83.523 75.7379 83.8036 75.1271 83.8036C74.5376 83.8036 74.1541 83.5479 74.044 83.0578L72.7904 83.1786C72.9502 84.18 73.7918 84.773 75.1306 84.773C76.4943 84.773 77.4566 84.0664 77.4602 83.033C77.4566 82.2553 76.9559 81.7794 75.9261 81.5557L74.9957 81.3568C74.4417 81.2326 74.2215 81.0408 74.2251 80.7247C74.2215 80.3554 74.6299 80.0997 75.1661 80.0997C75.7592 80.0997 76.0717 80.4229 76.1711 80.7816L77.343 80.6537ZM79.1121 84.7446C79.5311 84.7446 79.8898 84.3966 79.8933 83.9634C79.8898 83.5372 79.5311 83.1892 79.1121 83.1892C78.6789 83.1892 78.3273 83.5372 78.3308 83.9634C78.3273 84.3966 78.6789 84.7446 79.1121 84.7446ZM79.1121 80.849C79.5311 80.849 79.8898 80.501 79.8933 80.0678C79.8898 79.6416 79.5311 79.2936 79.1121 79.2936C78.6789 79.2936 78.3273 79.6416 78.3308 80.0678C78.3273 80.501 78.6789 80.849 79.1121 80.849ZM16.9562 97.5756H17.5386V96.7837C19.0301 96.6807 19.8682 95.8 19.8682 94.6921C19.8682 93.3284 18.5755 92.8881 17.8227 92.6892L17.5386 92.6111V90.0862C18.2915 90.1608 18.8383 90.5657 18.9165 91.212H19.7687C19.7332 90.175 18.8241 89.3867 17.5386 89.3014V88.4847H16.9562V89.3121C15.7382 89.4364 14.8255 90.2105 14.8255 91.3256C14.8255 92.3057 15.5358 92.8881 16.6721 93.2148L16.9562 93.2965V95.9847C16.2105 95.9066 15.5997 95.523 15.5358 94.7915H14.6267C14.7084 95.9101 15.5606 96.6914 16.9562 96.7837V97.5756ZM17.5386 95.9847V93.4634L17.567 93.4705C18.3341 93.6835 19.0159 93.9534 19.0159 94.6779C19.0159 95.3916 18.398 95.8888 17.5386 95.9847ZM16.9562 92.4549C16.4165 92.3022 15.6778 92.0039 15.6778 91.283C15.6778 90.6686 16.175 90.1999 16.9562 90.0969V92.4549ZM23.5451 89.3938H22.6644L20.8463 90.6012V91.496L22.6218 90.3171H22.6644V96.6665H23.5451V89.3938ZM25.4367 96.6665H30.0248V95.8853H26.6441V95.8284L28.2776 94.0813C29.5276 92.7425 29.897 92.1175 29.897 91.3114C29.897 90.1892 28.9879 89.2943 27.7095 89.2943C26.4346 89.2943 25.4651 90.1608 25.4651 91.4392H26.3032C26.3032 90.6118 26.8394 90.0614 27.6811 90.0614C28.4694 90.0614 29.0731 90.5443 29.0731 91.3114C29.0731 91.9826 28.6789 92.4797 27.8373 93.3995L25.4367 96.0273V96.6665ZM33.5641 96.7659C34.9491 96.7659 35.9647 95.7432 35.9647 94.3512C35.9647 92.9414 34.9846 91.908 33.6494 91.908C33.1593 91.908 32.6835 92.082 32.3852 92.3199H32.3426L32.5982 90.175H35.638V89.3938H31.8596L31.4193 92.9733L32.2431 93.0728C32.545 92.8561 33.0599 92.6999 33.5073 92.7034C34.4342 92.7105 35.1124 93.4137 35.1124 94.3654C35.1124 95.2993 34.459 95.9847 33.5641 95.9847C32.8184 95.9847 32.2254 95.5053 32.1579 94.8483H31.3056C31.3589 95.9563 32.3141 96.7659 33.5641 96.7659ZM38.1662 95.6722H37.2571L37.2145 96.0699C37.1115 97.0323 36.9091 97.9911 36.8167 98.4421H37.4559C37.6264 97.9591 37.9886 96.8654 38.1094 96.0557L38.1662 95.6722ZM39.5047 96.6665H44.0928V95.8853H40.7121V95.8284L42.3456 94.0813C43.5956 92.7425 43.9649 92.1175 43.9649 91.3114C43.9649 90.1892 43.0558 89.2943 41.7774 89.2943C40.5026 89.2943 39.5331 90.1608 39.5331 91.4392H40.3712C40.3712 90.6118 40.9074 90.0614 41.749 90.0614C42.5374 90.0614 43.1411 90.5443 43.1411 91.3114C43.1411 91.9826 42.7469 92.4797 41.9053 93.3995L39.5047 96.0273V96.6665ZM47.6747 89.2801C46.1975 89.2659 45.2458 90.3739 45.2458 91.7233C45.2458 93.1296 46.2827 94.1381 47.5327 94.1381C48.2855 94.1381 48.9247 93.7688 49.3225 93.1722H49.3793C49.3793 94.962 48.6833 95.9847 47.5611 95.9847C46.794 95.9847 46.3253 95.5017 46.169 94.8341H45.3026C45.473 95.9847 46.3395 96.7659 47.5611 96.7659C49.1946 96.7659 50.2031 95.3171 50.2031 92.7318C50.2031 90.0472 48.8679 89.2943 47.6747 89.2801ZM47.6747 90.0614C48.5838 90.0614 49.2514 90.8426 49.2514 91.7091C49.2514 92.5756 48.5412 93.3568 47.6463 93.3568C46.7514 93.3568 46.098 92.6324 46.098 91.7233C46.098 90.8 46.7798 90.0614 47.6747 90.0614ZM53.715 89.2801C52.2377 89.2659 51.286 90.3739 51.286 91.7233C51.286 93.1296 52.3229 94.1381 53.5729 94.1381C54.3258 94.1381 54.965 93.7688 55.3627 93.1722H55.4195C55.4195 94.962 54.7235 95.9847 53.6013 95.9847C52.8343 95.9847 52.3655 95.5017 52.2093 94.8341H51.3428C51.5133 95.9847 52.3797 96.7659 53.6013 96.7659C55.2349 96.7659 56.2434 95.3171 56.2434 92.7318C56.2434 90.0472 54.9081 89.2943 53.715 89.2801ZM53.715 90.0614C54.6241 90.0614 55.2917 90.8426 55.2917 91.7091C55.2917 92.5756 54.5814 93.3568 53.6866 93.3568C52.7917 93.3568 52.1383 92.6324 52.1383 91.7233C52.1383 90.8 52.8201 90.0614 53.715 90.0614Z" fill="#1F1E1E"/>
<path d="M86.1222 82.3432H86.5682V81.5832H87.3281V81.1372H86.5682V80.3773H86.1222V81.1372H85.3622V81.5832H86.1222V82.3432ZM88.904 82.8489C89.5333 82.8489 89.9836 82.5023 89.985 82.0293C89.9836 81.6656 89.7151 81.3616 89.377 81.3048V81.2849C89.6711 81.2196 89.8756 80.9554 89.877 80.64C89.8756 80.1926 89.4637 79.8602 88.904 79.8602C88.3401 79.8602 87.9282 80.1912 87.9296 80.64C87.9282 80.9554 88.1299 81.2196 88.4296 81.2849V81.3048C88.0858 81.3616 87.8202 81.6656 87.8216 82.0293C87.8202 82.5023 88.2691 82.8489 88.904 82.8489ZM88.904 82.4426C88.5745 82.4426 88.3614 82.2608 88.3642 81.9923C88.3614 81.7139 88.5901 81.5165 88.904 81.5165C89.2137 81.5165 89.441 81.7153 89.4438 81.9923C89.441 82.2608 89.2293 82.4426 88.904 82.4426ZM88.904 81.1173C88.6341 81.1173 88.441 80.9426 88.4438 80.6898C88.441 80.4398 88.6285 80.2722 88.904 80.2722C89.1753 80.2722 89.3614 80.4398 89.3642 80.6898C89.3614 80.944 89.1696 81.1173 88.904 81.1173ZM90.6085 82.8403C90.7761 82.8403 90.9195 82.7011 90.921 82.5278C90.9195 82.3574 90.7761 82.2182 90.6085 82.2182C90.4352 82.2182 90.2945 82.3574 90.296 82.5278C90.2945 82.7011 90.4352 82.8403 90.6085 82.8403ZM92.3424 82.8489C92.9574 82.8489 93.3864 82.4312 93.3864 81.8531C93.3864 81.2935 92.9972 80.89 92.4688 80.89C92.233 80.89 92.0242 80.9838 91.9163 81.1116H91.8992L91.983 80.3403H93.2344V79.9H91.5469L91.3949 81.4L91.8708 81.4781C91.9688 81.3702 92.1535 81.2977 92.3282 81.2991C92.6478 81.3006 92.8779 81.5364 92.8765 81.8659C92.8779 82.1912 92.6535 82.4227 92.3424 82.4227C92.0796 82.4227 91.868 82.2565 91.8495 82.0179H91.3381C91.3523 82.5008 91.7742 82.8489 92.3424 82.8489ZM95.3377 82.2636C95.3391 82.6017 95.5536 82.89 95.9527 82.89C96.3505 82.89 96.5692 82.6017 96.5678 82.2636V82.1102C96.5692 81.7693 96.3561 81.4838 95.9527 81.4838C95.5593 81.4838 95.3391 81.7722 95.3377 82.1102V82.2636ZM93.859 80.5989C93.8604 80.9369 94.0749 81.2224 94.4755 81.2224C94.8718 81.2224 95.0905 80.9398 95.0891 80.5989V80.4454C95.0905 80.1045 94.8774 79.819 94.4755 79.819C94.0834 79.819 93.8604 80.1045 93.859 80.4454V80.5989ZM93.9868 82.8091H94.3434L96.3434 79.9H95.9868L93.9868 82.8091ZM95.7084 82.1102C95.7098 81.9597 95.7738 81.8077 95.9527 81.8077C96.1402 81.8077 96.1956 81.9597 96.1942 82.1102V82.2636C96.1956 82.4142 96.1345 82.5633 95.9527 82.5633C95.7709 82.5633 95.7098 82.4128 95.7084 82.2636V82.1102ZM94.2326 80.4454C94.234 80.2963 94.2951 80.1429 94.4755 80.1429C94.663 80.1429 94.7169 80.2949 94.7155 80.4454V80.5989C94.7169 80.7494 94.6573 80.8986 94.4755 80.8986C94.2936 80.8986 94.234 80.7494 94.2326 80.5989V80.4454Z" fill="#6FA52B"/>
<rect x="84.5" y="78.2986" width="13" height="6.0726" rx="1.5" stroke="#6FA52B"/>
<defs>
<filter id="filter0_d_22_20" x="68.957" y="24.7073" width="189.043" height="188.174" filterUnits="userSpaceOnUse" color-interpolation-filters="sRGB">
<feFlood flood-opacity="0" result="BackgroundImageFix"/>
<feColorMatrix in="SourceAlpha" type="matrix" values="0 0 0 0 0 0 0 0 0 0 0 0 0 0 0 0 0 0 127 0" result="hardAlpha"/>
<feOffset dy="26"/>
<feGaussianBlur stdDeviation="27.5"/>
<feColorMatrix type="matrix" values="0 0 0 0 0 0 0 0 0 0 0 0 0 0 0 0 0 0 0.13 0"/>
<feBlend mode="normal" in2="BackgroundImageFix" result="effect1_dropShadow_22_20"/>
<feBlend mode="normal" in="SourceGraphic" in2="effect1_dropShadow_22_20" result="shape"/>
</filter>
</defs>
</svg>
